<?xml version="1.0" encoding="UTF-8" standalone="no"?>
<svg
   height="24"
   viewBox="0 0 24 24"
   width="24"
   version="1.1"
   id="svg6"
   sodipodi:docname="active.svg"
   inkscape:version="1.1.2 (b8e25be833, 2022-02-05)"
   xmlns:inkscape="http://www.inkscape.org/namespaces/inkscape"
   xmlns:sodipodi="http://sodipodi.sourceforge.net/DTD/sodipodi-0.dtd"
   xmlns="http://www.w3.org/2000/svg"
   xmlns:svg="http://www.w3.org/2000/svg">
  <defs
     id="defs10" />
  <sodipodi:namedview
     id="namedview8"
     pagecolor="#ffffff"
     bordercolor="#666666"
     borderopacity="1.0"
     inkscape:pageshadow="2"
     inkscape:pageopacity="0.0"
     inkscape:pagecheckerboard="0"
     showgrid="false"
     inkscape:zoom="23.291667"
     inkscape:cx="12"
     inkscape:cy="12.021467"
     inkscape:window-width="1366"
     inkscape:window-height="745"
     inkscape:window-x="-8"
     inkscape:window-y="-8"
     inkscape:window-maximized="1"
     inkscape:current-layer="svg6" />
  <path
     d="M0 0h24v24H0V0z"
     fill="none"
     id="path2" />
  <path
     d="M4 13h6c.55 0 1-.45 1-1V4c0-.55-.45-1-1-1H4c-.55 0-1 .45-1 1v8c0 .55.45 1 1 1zm0 8h6c.55 0 1-.45 1-1v-4c0-.55-.45-1-1-1H4c-.55 0-1 .45-1 1v4c0 .55.45 1 1 1zm10 0h6c.55 0 1-.45 1-1v-8c0-.55-.45-1-1-1h-6c-.55 0-1 .45-1 1v8c0 .55.45 1 1 1zM13 4v4c0 .55.45 1 1 1h6c.55 0 1-.45 1-1V4c0-.55-.45-1-1-1h-6c-.55 0-1 .45-1 1z"
     id="path4"
     style="fill:#c3073f;fill-opacity:1" />
</svg>
