<?xml version="1.0" encoding="UTF-8" standalone="no"?>
<svg
   version="1.1"
   id="Icons"
   x="0px"
   y="0px"
   viewBox="0 0 32 32"
   style="enable-background:new 0 0 32 32;"
   xml:space="preserve"
   sodipodi:docname="inactive.svg"
   inkscape:version="1.2 (dc2aedaf03, 2022-05-15)"
   xmlns:inkscape="http://www.inkscape.org/namespaces/inkscape"
   xmlns:sodipodi="http://sodipodi.sourceforge.net/DTD/sodipodi-0.dtd"
   xmlns="http://www.w3.org/2000/svg"
   xmlns:svg="http://www.w3.org/2000/svg"><defs
   id="defs11" /><sodipodi:namedview
   id="namedview9"
   pagecolor="#ffffff"
   bordercolor="#000000"
   borderopacity="0.25"
   inkscape:showpageshadow="2"
   inkscape:pageopacity="0.0"
   inkscape:pagecheckerboard="0"
   inkscape:deskcolor="#d1d1d1"
   showgrid="false"
   inkscape:zoom="16.15625"
   inkscape:cx="16"
   inkscape:cy="16.030948"
   inkscape:window-width="1366"
   inkscape:window-height="697"
   inkscape:window-x="-8"
   inkscape:window-y="-8"
   inkscape:window-maximized="1"
   inkscape:current-layer="g6" />
<g
   id="g6">
	<path
   d="M26.4,22l-2.7-1.9l-4.3-3l-2.9-2c0,0,0,0,0,0c0,0,0,0-0.1-0.1c-0.1,0-0.2-0.1-0.2-0.1c0,0,0,0,0,0c-0.1,0-0.2,0-0.3,0   c0,0-0.1,0-0.1,0c-0.1,0-0.2,0.1-0.2,0.1c0,0,0,0-0.1,0c0,0,0,0,0,0l-2.9,2l-4.3,3L5.6,22c-2,0.2-3.6,1.9-3.6,4c0,2.2,1.8,4,4,4   s4-1.8,4-4c0-1.4-0.7-2.6-1.8-3.3l1.2-0.9l4.3-3l1.3-0.9v1.6v2.6c-1.7,0.4-3,2-3,3.9c0,2.2,1.8,4,4,4s4-1.8,4-4   c0-1.9-1.3-3.4-3-3.9v-2.6v-1.6l1.3,0.9l4.3,3l1.2,0.9C22.7,23.4,22,24.6,22,26c0,2.2,1.8,4,4,4s4-1.8,4-4   C30,23.9,28.4,22.2,26.4,22z"
   id="path2"
   style="fill:#950740;fill-opacity:1" />
	<path
   d="M11,14l10,0c0.3,0,0.6-0.1,0.8-0.4c0.2-0.2,0.3-0.5,0.2-0.8c-0.3-1.5-1.4-2.7-2.9-3.1c-0.4-0.1-0.7-0.4-0.8-0.8   C18.7,8.4,19,7.7,19,7V5c0-1.7-1.3-3-3-3s-3,1.3-3,3v2c0,0.7,0.3,1.4,0.7,1.9c-0.1,0.4-0.4,0.7-0.8,0.8c-1.5,0.4-2.6,1.6-2.8,3.1   c-0.1,0.3,0,0.6,0.2,0.8C10.4,13.9,10.7,14,11,14z"
   id="path4"
   style="fill:#950740;fill-opacity:1" />
</g>
</svg>
