<?xml version="1.0" encoding="UTF-8" standalone="no"?>
<svg
   enable-background="new 0 0 24 24"
   height="24"
   viewBox="0 0 24 24"
   width="24"
   version="1.1"
   id="svg16"
   sodipodi:docname="active.svg"
   inkscape:version="1.1.2 (b8e25be833, 2022-02-05)"
   xmlns:inkscape="http://www.inkscape.org/namespaces/inkscape"
   xmlns:sodipodi="http://sodipodi.sourceforge.net/DTD/sodipodi-0.dtd"
   xmlns="http://www.w3.org/2000/svg"
   xmlns:svg="http://www.w3.org/2000/svg">
  <defs
     id="defs20" />
  <sodipodi:namedview
     id="namedview18"
     pagecolor="#ffffff"
     bordercolor="#666666"
     borderopacity="1.0"
     inkscape:pageshadow="2"
     inkscape:pageopacity="0.0"
     inkscape:pagecheckerboard="0"
     showgrid="false"
     inkscape:zoom="23.291667"
     inkscape:cx="12"
     inkscape:cy="12.021467"
     inkscape:window-width="1366"
     inkscape:window-height="745"
     inkscape:window-x="-8"
     inkscape:window-y="-8"
     inkscape:window-maximized="1"
     inkscape:current-layer="g12" />
  <g
     id="g6">
    <rect
       fill="none"
       height="24"
       width="24"
       id="rect2" />
    <rect
       fill="none"
       height="24"
       width="24"
       id="rect4" />
  </g>
  <g
     id="g14">
    <g
       id="g12">
      <path
         d="M12,8c-2.21,0-4,1.79-4,4c0,2.21,1.79,4,4,4c2.21,0,4-1.79,4-4C16,9.79,14.21,8,12,8z M12,14c-1.1,0-2-0.9-2-2 c0-1.1,0.9-2,2-2s2,0.9,2,2C14,13.1,13.1,14,12,14z"
         id="path8"
         style="fill:#950740;fill-opacity:1" />
      <path
         d="M22,6.11L22,6.11c0-0.46-0.3-0.86-0.74-0.97C19.23,4.6,16.03,4,12,4C9.85,4,7.89,4.86,6.46,6.24 c0.1-0.65,0.28-1.69,0.62-2.96C7.25,2.64,6.78,2,6.11,2h0C5.66,2,5.26,2.3,5.14,2.74C4.6,4.77,4,7.97,4,12 c0,2.15,0.86,4.11,2.24,5.54c-0.65-0.1-1.69-0.28-2.96-0.62C2.64,16.75,2,17.22,2,17.89v0c0,0.46,0.3,0.86,0.74,0.97 C4.77,19.4,7.97,20,12,20c2.15,0,4.11-0.86,5.54-2.24c-0.1,0.65-0.28,1.69-0.62,2.96c-0.17,0.64,0.3,1.28,0.97,1.28h0 c0.46,0,0.86-0.3,0.97-0.74C19.4,19.23,20,16.03,20,12c0-2.15-0.86-4.11-2.24-5.54c0.65,0.1,1.69,0.28,2.96,0.62 C21.36,7.25,22,6.78,22,6.11z M12,18c-3.31,0-6-2.69-6-6s2.69-6,6-6s6,2.69,6,6S15.31,18,12,18z"
         id="path10"
         style="fill:#c3073f;fill-opacity:1" />
    </g>
  </g>
</svg>
