<?xml version="1.0" encoding="UTF-8" standalone="no"?>
<svg
   width="56.5"
   height="22.845"
   viewBox="0 0 56.5 22.845"
   version="1.1"
   id="svg7"
   sodipodi:docname="active.svg"
   inkscape:version="1.1.2 (b8e25be833, 2022-02-05)"
   xmlns:inkscape="http://www.inkscape.org/namespaces/inkscape"
   xmlns:sodipodi="http://sodipodi.sourceforge.net/DTD/sodipodi-0.dtd"
   xmlns="http://www.w3.org/2000/svg"
   xmlns:svg="http://www.w3.org/2000/svg">
  <defs
     id="defs11" />
  <sodipodi:namedview
     id="namedview9"
     pagecolor="#ffffff"
     bordercolor="#666666"
     borderopacity="1.0"
     inkscape:pageshadow="2"
     inkscape:pageopacity="0.0"
     inkscape:pagecheckerboard="0"
     showgrid="false"
     inkscape:zoom="9.3628319"
     inkscape:cx="28.25"
     inkscape:cy="11.428166"
     inkscape:window-width="1366"
     inkscape:window-height="745"
     inkscape:window-x="-8"
     inkscape:window-y="-8"
     inkscape:window-maximized="1"
     inkscape:current-layer="currency_exchange-1.1s-200px" />
  <g
     id="currency_exchange-1.1s-200px"
     data-name="currency exchange-1.1s-200px"
     transform="translate(-6.803 -32.535)">
    <path
       id="Path_4"
       data-name="Path 4"
       d="M82,42.109c-2.38-.9-3.36-1.483-3.36-2.407,0-.785.588-1.568,2.408-1.568a8.584,8.584,0,0,1,2.482.356,1.607,1.607,0,0,0,2-1.157,1.626,1.626,0,0,0-1.177-1.974A11.984,11.984,0,0,0,81.836,35V33.906a1.371,1.371,0,1,0-2.743,0v1.287c-3,.588-4.732,2.519-4.732,4.983,0,2.715,2.044,4.115,5.04,5.123,2.072.7,2.968,1.373,2.968,2.436,0,1.12-1.091,1.736-2.687,1.736a9.435,9.435,0,0,1-3.028-.52,1.6,1.6,0,0,0-2.084,1.1l-.034.131a1.617,1.617,0,0,0,1.054,1.94,12.907,12.907,0,0,0,3.362.6v1.288a1.372,1.372,0,0,0,1.371,1.371h0A1.371,1.371,0,0,0,81.7,54.009V52.525c3.219-.56,4.983-2.687,4.983-5.18,0-2.52-1.343-4.06-4.675-5.236Z"
       transform="translate(-23.376)"
       fill="#950740"
       style="fill:#c3073f;fill-opacity:1" />
    <path
       id="Path_5"
       data-name="Path 5"
       d="M48.538,44.6l8.455-4.28c.141-.062.162-.144.162-.2a.19.19,0,0,0-.122-.186l-8.495-4.3v3.29H35.793v2.388H48.538Z"
       transform="translate(-10.031 -1.072)"
       fill="#6f2232" />
    <path
       id="Path_6"
       data-name="Path 6"
       d="M43.843,50.654l-8.455,4.28c-.141.062-.163.144-.163.2a.19.19,0,0,0,.123.186l8.495,4.3v-3.29H56.588V53.943H43.843Z"
       transform="translate(-9.834 -6.269)"
       fill="#6f2232" />
    <path
       id="Path_7"
       data-name="Path 7"
       d="M20.654,44.231a4.113,4.113,0,0,0-1.383-.623c.731-.234.763-.53,1.209-.889A3.775,3.775,0,0,0,21.5,41.48a3.25,3.25,0,0,0-.317-3.458,4.209,4.209,0,0,0-1.921-1.381,5.887,5.887,0,0,0-.886-.254V33.347H15.765v2.814H13.8V33.347H11.187v2.814H6.8v2.184h.661a2.358,2.358,0,0,1,.9.113.685.685,0,0,1,.33.305,2.511,2.511,0,0,1,.1.894l.02,8.805a2.506,2.506,0,0,1-.1.888.653.653,0,0,1-.334.305,2.511,2.511,0,0,1-.9.107H6.8v2.184h4.383v2.325H13.8V51.948h1.962v2.326h2.616V51.731a7.782,7.782,0,0,0,1.143-.336,5.02,5.02,0,0,0,2.3-1.613,3.722,3.722,0,0,0,.812-2.314A3.527,3.527,0,0,0,22.1,45.56,3.687,3.687,0,0,0,20.654,44.231Zm-7.723-5.524h1.838c.454,0,.76.011.995.033a3.405,3.405,0,0,1,.748.153,1.791,1.791,0,0,1,.955.628,1.724,1.724,0,0,1,.33,1.064,1.7,1.7,0,0,1-.349,1.058,2.065,2.065,0,0,1-1.039.685,3.8,3.8,0,0,1-.646.171,6.429,6.429,0,0,1-.995.055H12.931V38.707Zm4.81,9.756a2.323,2.323,0,0,1-1.205.775,4.071,4.071,0,0,1-.772.168q-.258.021-.518.019H14.011l-.209,0a1.881,1.881,0,0,1-.549-.06.376.376,0,0,1-.2-.22,4.052,4.052,0,0,1-.06-.849V44.875h2.192c.232,0,.419.005.579.015a3.222,3.222,0,0,1,1.068.234,2.129,2.129,0,0,1,1.054.736,1.977,1.977,0,0,1,.351,1.188,2.118,2.118,0,0,1-.5,1.415Z"
       transform="translate(0 -0.281)"
       fill="#950740"
       style="fill:#c3073f;fill-opacity:1" />
  </g>
</svg>
