<?xml version="1.0" encoding="UTF-8" standalone="no"?>
<!-- Generator: Adobe Illustrator 19.1.0, SVG Export Plug-In . SVG Version: 6.00 Build 0)  -->

<svg
   version="1.1"
   id="Capa_1"
   x="0px"
   y="0px"
   viewBox="0 0 481 481"
   style="enable-background:new 0 0 481 481;"
   xml:space="preserve"
   sodipodi:docname="active.svg"
   inkscape:version="1.2 (dc2aedaf03, 2022-05-15)"
   xmlns:inkscape="http://www.inkscape.org/namespaces/inkscape"
   xmlns:sodipodi="http://sodipodi.sourceforge.net/DTD/sodipodi-0.dtd"
   xmlns="http://www.w3.org/2000/svg"
   xmlns:svg="http://www.w3.org/2000/svg"><defs
   id="defs43" /><sodipodi:namedview
   id="namedview41"
   pagecolor="#ffffff"
   bordercolor="#000000"
   borderopacity="0.25"
   inkscape:showpageshadow="2"
   inkscape:pageopacity="0.0"
   inkscape:pagecheckerboard="0"
   inkscape:deskcolor="#d1d1d1"
   showgrid="false"
   inkscape:zoom="1.0748441"
   inkscape:cx="240.5"
   inkscape:cy="240.96518"
   inkscape:window-width="1366"
   inkscape:window-height="697"
   inkscape:window-x="-8"
   inkscape:window-y="-8"
   inkscape:window-maximized="1"
   inkscape:current-layer="g6" />
<g
   id="g8">
	<g
   id="g6">
		<path
   d="M410.6,70.4C365.1,25,304.7,0,240.5,0S115.9,25,70.4,70.4C25,115.9,0,176.3,0,240.5s25,124.6,70.4,170.1    C115.8,456,176.2,481,240.5,481s124.6-25,170.1-70.4C456,365.2,481,304.8,481,240.5S456,115.9,410.6,70.4z M240.5,454    C122.8,454,27,358.2,27,240.5S122.8,27,240.5,27S454,122.8,454,240.5S358.2,454,240.5,454z"
   id="path2"
   style="fill:#c3073f;fill-opacity:1" />
		<path
   d="M349.2,229.1l-152.6-97.9c-4.2-2.7-9.4-2.9-13.8-0.5c-4.3,2.4-7,6.9-7,11.8v195.7c0,4.9,2.7,9.5,7,11.8    c2,1.1,4.3,1.7,6.5,1.7c2.5,0,5.1-0.7,7.3-2.1l152.6-97.9c3.9-2.5,6.2-6.8,6.2-11.4S353,231.6,349.2,229.1z M202.8,313.7V167.3    l114.1,73.2L202.8,313.7z"
   id="path4"
   style="fill:#c3073f;fill-opacity:1" />
	</g>
</g>
<g
   id="g10">
</g>
<g
   id="g12">
</g>
<g
   id="g14">
</g>
<g
   id="g16">
</g>
<g
   id="g18">
</g>
<g
   id="g20">
</g>
<g
   id="g22">
</g>
<g
   id="g24">
</g>
<g
   id="g26">
</g>
<g
   id="g28">
</g>
<g
   id="g30">
</g>
<g
   id="g32">
</g>
<g
   id="g34">
</g>
<g
   id="g36">
</g>
<g
   id="g38">
</g>
</svg>
