<?xml version="1.0" encoding="UTF-8" standalone="no"?>
<svg
   width="24"
   height="24"
   viewBox="0 0 24 24"
   version="1.1"
   id="svg1212"
   sodipodi:docname="active.svg"
   inkscape:version="1.2 (dc2aedaf03, 2022-05-15)"
   xmlns:inkscape="http://www.inkscape.org/namespaces/inkscape"
   xmlns:sodipodi="http://sodipodi.sourceforge.net/DTD/sodipodi-0.dtd"
   xmlns="http://www.w3.org/2000/svg"
   xmlns:svg="http://www.w3.org/2000/svg">
  <defs
     id="defs1216" />
  <sodipodi:namedview
     id="namedview1214"
     pagecolor="#ffffff"
     bordercolor="#000000"
     borderopacity="0.25"
     inkscape:showpageshadow="2"
     inkscape:pageopacity="0.0"
     inkscape:pagecheckerboard="0"
     inkscape:deskcolor="#d1d1d1"
     showgrid="false"
     inkscape:zoom="21.541667"
     inkscape:cx="12.046422"
     inkscape:cy="12.023211"
     inkscape:window-width="1366"
     inkscape:window-height="697"
     inkscape:window-x="-8"
     inkscape:window-y="-8"
     inkscape:window-maximized="1"
     inkscape:current-layer="svg1212" />
  <path
     d="M17.033 6.966c.584.583.584 1.529 0 2.112l-7.955 7.956c-.583.583-1.529.583-2.112 0-.583-.583-.583-1.529 0-2.112l7.956-7.956c.582-.583 1.528-.583 2.111 0zm-9.138 13.386c-1.171 1.171-3.076 1.171-4.248 0-1.171-1.171-1.171-3.077 0-4.248l5.639-5.632c-1.892-.459-3.971.05-5.449 1.528l-2.147 2.147c-2.254 2.254-2.254 5.909 0 8.163 2.254 2.254 5.909 2.254 8.163 0l2.147-2.148c1.477-1.477 1.986-3.556 1.527-5.448l-5.632 5.638zm6.251-18.662l-2.146 2.148c-1.478 1.478-1.99 3.553-1.53 5.445l5.634-5.635c1.172-1.171 3.077-1.171 4.248 0 1.172 1.171 1.172 3.077 0 4.248l-5.635 5.635c1.893.459 3.968-.053 5.445-1.53l2.146-2.147c2.254-2.254 2.254-5.908 0-8.163-2.253-2.254-5.908-2.254-8.162-.001z"
     id="path1210"
     style="fill:#c3073f;fill-opacity:1" />
</svg>
