<?xml version="1.0" encoding="UTF-8" standalone="no"?>
<svg version="1.0" width="1280.000000pt" height="920.000000pt" viewBox="0 0 1280.000000 920.000000"
   preserveAspectRatio="xMidYMid meet" id="svg22" sodipodi:docname="1294993.svg"
   inkscape:version="1.1.2 (b8e25be833, 2022-02-05)" xmlns:inkscape="http://www.inkscape.org/namespaces/inkscape"
   xmlns:sodipodi="http://sodipodi.sourceforge.net/DTD/sodipodi-0.dtd" xmlns="http://www.w3.org/2000/svg"
   xmlns:svg="http://www.w3.org/2000/svg">
   <defs id="defs26" />
   <sodipodi:namedview id="namedview24" pagecolor="#ffffff" bordercolor="#666666" borderopacity="1.0"
      inkscape:pageshadow="2" inkscape:pageopacity="0.0" inkscape:pagecheckerboard="0" inkscape:document-units="pt"
      showgrid="false" inkscape:zoom="0.64446634" inkscape:cx="852.64344" inkscape:cy="467.0531"
      inkscape:window-width="1366" inkscape:window-height="745" inkscape:window-x="-8" inkscape:window-y="-8"
      inkscape:window-maximized="1" inkscape:current-layer="g20" />
   <metadata id="metadata2">
      Created by potrace 1.15, written by Peter Selinger 2001-2017
   </metadata>
   <g transform="translate(0.000000,920.000000) scale(0.100000,-0.100000)" fill="#000000" stroke="none" id="g20">
      <path
         d="m 6387.0845,8467.7948 c 758.0887,-45.0277 1580.3972,-280.5002 2266.1463,-648.8412 1074.0205,-576.5017 1817.3462,-1436.4563 1974.5742,-2284.6003 120.319,-651.0558 -98.914,-1235.6772 -620.053,-1653.4748 -138.0362,-110.7238 -357.2692,-239.9015 -538.8562,-316.6701 -86.3644,-36.9079 -292.3107,-112.9381 -284.1909,-105.5566 2.2144,2.2145 62.0053,33.2171 132.8685,69.3869 267.2133,135.8212 482.7556,299.6923 648.1031,493.0898 355.0545,414.1069 476.8505,932.2941 351.3635,1493.2945 -149.846,670.2479 -678.3677,1367.8075 -1437.9327,1897.8053 -721.1808,504.1622 -1599.5893,840.7624 -2484.6413,952.9625 -234.7343,29.5264 -302.6449,33.2172 -612.6714,33.2172 -317.4082,0 -423.7029,-6.6435 -623.7439,-36.908 -62.0053,-9.5961 19.9303,11.8106 122.5343,32.4789 366.1266,72.3396 724.8716,96.6989 1106.4995,73.8159 z"
         id="path4" style="stroke-width:0.738158" />
      <path
         d="M 4368.2213,8154.8157 C 3753.3353,7998.3261 3145.0931,7638.1048 2609.1896,7114.7505 1942.6326,6462.9566 1508.5956,5650.9823 1440.6846,4930.5397 c -13.287,-145.4172 -5.167,-360.9595 18.455,-486.4464 104.818,-552.8807 470.944,-903.5059 1034.159,-990.6086 l 66.434,-10.3342 -67.172,-0.7382 c -138.773,-1.4763 -331.433,28.7882 -467.992,73.0777 -97.437,32.479 -222.924,93.7461 -304.121,148.3699 -142.465,96.6987 -283.453,259.8317 -364.651,420.7502 -430.34598,857.7401 142.465,2290.5056 1303.588,3257.4931 482.7553,402.2963 1032.6831,688.7019 1531.6786,797.2111 78.2448,16.9777 275.3331,49.4567 295.2633,47.9803 3.6909,0 -49.4565,-14.7632 -118.1052,-32.4789 z"
         id="path6" style="stroke-width:0.738158" />
      <path
         d="m 6313.2687,7648.439 c 735.2057,-45.0277 1357.4733,-231.7817 1754.6025,-527.7833 146.1554,-108.5092 288.6199,-280.5002 346.9344,-417.7976 74.5541,-177.8962 80.4593,-370.5556 16.9777,-561.0005 -99.6514,-296.7396 -390.4858,-617.1004 -792.044,-872.5032 -22.8829,-14.7632 -42.075,-25.8355 -42.075,-23.6211 0,1.4763 17.7158,16.9777 38.3842,33.9553 358.745,284.9291 571.3346,610.457 603.0754,920.4836 19.1922,183.8014 -34.6934,380.8898 -148.3698,546.9754 -47.2421,67.9105 -165.3475,192.6593 -242.1159,254.6646 -402.2964,324.7897 -1091.7364,535.9031 -1897.0672,581.6688 -310.0265,17.7159 -921.2217,-5.9052 -1110.9284,-42.8131 -12.5487,-2.2145 -19.9303,-1.4763 -17.7158,0.7381 13.2869,14.025 432.5608,74.554 641.4596,93.008 257.6174,22.1448 624.4821,28.05 848.8823,14.025 z"
         id="path8" style="stroke-width:0.738158" />
      <path
         d="m 3607.9182,6792.9133 c -8.1196,-3.6907 -46.5044,-19.192 -84.8884,-33.9552 -182.3248,-69.3869 -403.0346,-195.612 -537.3797,-307.8121 -174.2053,-145.4171 -294.5245,-320.3607 -342.5055,-498.2569 -19.192,-72.3395 -25.835,-217.0186 -13.287,-294.5252 53.886,-335.862 357.2695,-645.1504 830.4285,-847.4059 590.527,-251.712 1376.6657,-304.1212 2052.0807,-135.8211 104.8184,25.8355 293.787,87.1026 374.2463,121.058 31.7408,13.2868 56.1,21.4065 53.8856,18.4539 -5.1671,-8.8579 -143.941,-88.579 -216.2804,-124.7488 -275.3331,-138.0355 -645.8887,-234.7344 -1016.4442,-266.4752 -115.1527,-9.596 -397.8674,-9.596 -518.1872,0 -519.6639,42.0751 -980.2748,198.5647 -1316.8745,447.3241 -105.5569,77.5066 -242.1158,217.0185 -304.1208,310.0265 -188.231,283.4528 -208.161,569.8583 -59.054,859.9546 70.126,136.5592 180.85,265.737 327.0051,382.366 171.253,136.5593 398.6053,254.6647 646.6261,335.1239 111.4624,36.908 149.8464,47.2422 124.7494,34.6934 z"
         id="path10" style="stroke-width:0.738158" />
      <path
         d="m 4755.7544,6716.1449 c 0,-2.2145 -17.7158,-7.3816 -39.1224,-11.8105 -89.3172,-18.454 -190.4449,-83.4119 -260.57,-169.0383 -49.4565,-59.0527 -108.5092,-175.6817 -129.1777,-255.4028 -16.9776,-63.4816 -22.8829,-202.9936 -11.8105,-256.8792 5.1671,-24.3591 8.1197,-28.05 22.1448,-24.3591 30.2645,7.3815 222.9238,33.2171 311.5028,42.075 114.4145,11.8105 460.6109,11.8105 579.4544,0.7381 403.7727,-39.1224 701.2504,-121.7961 1058.5191,-295.2634 2.9527,-2.2145 3.6908,11.0724 0.7382,28.7882 -2.9526,17.7158 -5.1671,68.6488 -5.1671,113.6764 1.4763,176.4199 69.3869,341.0292 196.3501,474.6358 62.0053,64.9581 103.3422,95.9607 178.6344,133.6068 107.7711,53.8856 215.5422,70.125 320.3607,49.4565 70.8632,-14.7631 105.5567,-29.5263 50.9329,-22.1447 -18.454,2.2145 -60.529,0 -92.2698,-4.4289 -275.3331,-41.3369 -501.9477,-314.4555 -524.0924,-630.3873 -2.9527,-39.8606 -1.4764,-90.0554 3.6907,-122.5343 16.2396,-103.3422 16.9777,-104.0803 104.8186,-169.7764 428.87,-318.8845 569.8582,-736.6821 382.366,-1134.5495 -50.933,-107.033 -112.2001,-190.445 -219.9712,-297.4779 -191.183,-189.7067 -425.1792,-328.4805 -734.4676,-434.7753 -93.7461,-32.4789 -121.058,-36.9079 -50.1948,-8.1197 75.2922,30.2645 243.5923,116.629 316.67,163.133 200.0409,126.2251 370.5555,293.0488 458.3964,449.5385 67.1724,119.5816 99.6514,239.1633 100.3895,369.0792 0,134.3448 -21.4066,222.1857 -84.8882,347.6726 -157.2278,307.8121 -520.4017,567.6438 -1020.1349,729.3005 -233.2581,75.2922 -481.2794,123.2725 -772.8519,149.108 -100.3896,9.5961 -542.5465,12.5487 -550.6662,4.429 -9.596,-8.858 45.0276,-95.2225 82.6738,-130.6541 63.4816,-59.7909 155.7514,-92.2698 239.9014,-84.15 l 32.479,2.9526 -31.7408,-11.0724 c -160.1804,-53.1474 -339.5529,23.6211 -417.0595,178.6343 -40.5988,79.7212 -52.4093,132.8685 -51.6711,234.7344 0.7381,104.8185 16.2395,174.2054 62.0053,269.4278 92.2698,194.1357 272.3805,324.7897 447.324,324.7897 25.8355,0 46.504,-1.4763 46.504,-2.9526 z"
         id="path12" style="stroke-width:0.738158" />
      <path
         d="m 9340.4563,6211.9827 c 251.712,-208.1606 412.6306,-490.8753 465.0398,-817.8795 5.9053,-32.479 9.5961,-118.8435 9.5961,-191.9212 0,-73.0777 -3.6908,-159.4422 -9.5961,-191.9212 C 9726.5132,4521.6 9399.509,4128.8997 8946.2797,3976.839 c -153.537,-50.9329 -202.9935,-58.3145 -396.391,-58.3145 -150.5843,0 -183.0633,1.4763 -243.5923,15.5013 -117.3672,26.5737 -213.3278,59.7908 -313.7174,109.9856 -331.4331,163.8712 -579.4543,473.1595 -670.9859,834.8572 -25.0974,97.4369 -23.6211,115.8909 2.2144,46.504 155.7515,-416.3214 506.3767,-711.5847 931.5559,-785.4006 355.7924,-62.0053 721.9189,42.8133 995.0375,283.4528 520.4017,459.8727 559.5242,1271.847 86.3646,1777.4855 -19.9303,20.6685 -34.6934,38.3842 -32.479,38.3842 1.4763,0 17.7159,-12.5486 36.1698,-27.3118 z"
         id="path14" style="stroke-width:0.738158" />
      <path
         d="m 1998.7336,4839.0081 c 192.658,-16.2396 390.485,-86.3646 553.618,-196.3501 93.008,-63.4817 231.7821,-202.9936 293.7869,-297.4779 95.2222,-143.9409 161.6572,-316.6699 186.7541,-483.4938 14.7631,-101.1277 11.0728,-275.3331 -7.3815,-360.9595 -31.0024,-143.9408 -88.5788,-273.8568 -171.253,-387.5331 -122.5343,-169.0383 -157.2275,-230.3055 -190.4445,-334.3858 -37.646,-118.8435 -40.599,-234.7344 -10.335,-377.9371 62.744,-297.4778 257.6178,-536.6412 546.9758,-672.4623 56.1002,-25.8356 64.9579,-34.6935 17.7163,-16.9777 -140.9887,53.8856 -279.0242,139.5119 -377.9377,233.2581 -140.2494,132.8685 -228.8284,286.4055 -281.9764,490.8754 -19.191,74.5539 -20.668,88.5789 -20.668,223.662 0.738,135.0829 2.215,147.6317 20.668,210.3751 37.646,123.2725 85.627,208.1607 200.7792,358.0069 154.2748,199.3027 200.0412,451.7529 132.8682,730.7767 -33.2166,135.8212 -82.6734,244.3305 -176.4194,389.7477 -118.105,182.3251 -243.592,298.216 -417.06,385.3187 -66.434,33.2172 -208.16,78.2448 -277.547,88.579 -32.479,5.1672 -67.173,11.8106 -77.507,14.7632 -17.716,5.9052 -17.716,5.9052 3.691,5.9052 11.811,-0.7381 35.431,-2.2144 51.672,-3.6907 z"
         id="path16" style="stroke-width:0.738158" />
      <path
         d="m 7106.789,3356.0478 c -228.8292,-22.1448 -318.1464,-36.1697 -459.8727,-73.0777 -320.3608,-84.15 -594.9558,-230.3054 -915.3165,-487.9227 -125.4869,-100.3896 -239.9015,-204.4699 -476.1122,-431.8227 -198.5646,-191.183 -288.6199,-267.2134 -368.3411,-309.2884 -98.9132,-53.1474 -190.4448,-69.3868 -270.904,-48.7184 -42.8133,11.0724 -137.2975,54.6237 -131.3923,60.5289 1.4763,1.4764 27.3119,9.5961 57.5764,16.9777 101.8659,25.8356 219.233,88.579 353.5779,187.4922 91.5316,67.1724 162.3948,126.9633 346.9344,289.3582 210.3752,185.2777 242.8542,212.5896 339.5529,284.9291 302.645,225.8765 594.9557,372.77 897.6006,450.2767 175.6817,44.2894 289.3582,59.0527 486.4464,62.0053 93.008,1.4763 156.4896,0.7381 140.2502,-0.7382 z"
         id="path18" style="stroke-width:0.738158" />
      <g id="g51" class="dollarSign" transform="matrix(9.9400239,0,0,-9.9400239,6555.8393,6676.4486)">
         <path
            d="M 59.2,69.7 C 55.6,67.6 51.8,65.7 48.1,64 35.4,58 16.1,56.2 14.5,36.9 12.9,17.6 37.3,11.4 53.3,17.9 c 0,0 -8.7,8.9 0.8,14.6 9.8,5.7 16.2,-6.8 11.4,-12.8 C 53.2,4.1 20,11.3 8.8,26.8 -1.3,40.7 0.1,59.4 17.4,69.7 c 3.6,2.1 7.4,4 11.1,5.7 12.7,6 32,7.8 33.6,27.1 1.6,19.3 -22.8,25.5 -38.8,19 0,0 8.7,-8.9 -0.8,-14.6 -9.8,-5.7 -16.2,6.8 -11.4,12.8 12.4,15.5 45.5,8.4 56.7,-7.1 C 77.9,98.7 76.5,80 59.2,69.7 Z"
            id="path28" />
         <g id="g38">
            <g id="g32">
               <rect x="40.599998" y="2.3" width="4.8000002" height="134.89999" id="rect30" />

            </g>

            <g id="g36">
               <rect x="31.1" y="2.3" width="4.8000002" height="134.89999" id="rect34" />

            </g>

         </g>
      </g>
   </g>
</svg>