<svg id="cash-withdrawal" xmlns="http://www.w3.org/2000/svg" width="40.428" height="26" viewBox="0 0 40.428 26">
  <path id="Path_196" data-name="Path 196" d="M29.175,3.2V26H11.256V3.2H4.771a1.514,1.514,0,0,0-1.4,1.178A3.4,3.4,0,0,0,3.2,5.459a3.4,3.4,0,0,0,.161,1.076,1.514,1.514,0,0,0,1.4,1.178H7.232a1.6,1.6,0,1,1,0,3.2H4.771A4.558,4.558,0,0,1,.336,7.535a6.6,6.6,0,0,1,0-4.156A4.559,4.559,0,0,1,4.771,0H35.657a4.558,4.558,0,0,1,4.435,3.382,6.61,6.61,0,0,1,0,4.159,4.558,4.558,0,0,1-4.435,3.382h-3.1a1.6,1.6,0,0,1,0-3.2h3.1a1.514,1.514,0,0,0,1.4-1.178,3.4,3.4,0,0,0,.161-1.076,3.4,3.4,0,0,0-.161-1.076,1.514,1.514,0,0,0-1.4-1.178H29.175Zm-15.106,0v17a2.65,2.65,0,0,1,2.645,2.649H23.8a2.653,2.653,0,0,1,2.645-2.649V3.2Zm6.255,2.422A3.019,3.019,0,1,1,17.3,8.647a3.018,3.018,0,0,1,3.021-3.021Zm5.159,3.149A5.274,5.274,0,1,1,20.209,3.5a5.269,5.269,0,0,1,5.274,5.274Z" fill="#950740" fill-rule="evenodd"/>
</svg>
