<?xml version="1.0" encoding="UTF-8" standalone="no"?>
<svg
   width="17.721"
   height="33.369"
   viewBox="0 0 17.721 33.369"
   version="1.1"
   id="svg9"
   sodipodi:docname="active.svg"
   inkscape:version="1.1.2 (b8e25be833, 2022-02-05)"
   xmlns:inkscape="http://www.inkscape.org/namespaces/inkscape"
   xmlns:sodipodi="http://sodipodi.sourceforge.net/DTD/sodipodi-0.dtd"
   xmlns="http://www.w3.org/2000/svg"
   xmlns:svg="http://www.w3.org/2000/svg">
  <defs
     id="defs13" />
  <sodipodi:namedview
     id="namedview11"
     pagecolor="#ffffff"
     bordercolor="#666666"
     borderopacity="1.0"
     inkscape:pageshadow="2"
     inkscape:pageopacity="0.0"
     inkscape:pagecheckerboard="0"
     showgrid="false"
     inkscape:zoom="16.752076"
     inkscape:cx="8.8645732"
     inkscape:cy="16.714347"
     inkscape:window-width="1366"
     inkscape:window-height="745"
     inkscape:window-x="-8"
     inkscape:window-y="-8"
     inkscape:window-maximized="1"
     inkscape:current-layer="dollar-sign" />
  <g
     id="dollar-sign"
     transform="translate(-2.479 -2.3)">
    <path
       id="Path_8"
       data-name="Path 8"
       d="M16.51,25.514c-.89-.519-1.83-.989-2.746-1.41-3.141-1.484-7.915-1.929-8.311-6.7s5.64-6.308,9.6-4.7c0,0-2.152,2.2.2,3.611,2.424,1.41,4.007-1.682,2.82-3.166C15.026,9.287,6.813,11.068,4.043,14.9c-2.5,3.438-2.152,8.064,2.127,10.612.89.519,1.83.989,2.746,1.41,3.141,1.484,7.915,1.929,8.311,6.7s-5.64,6.308-9.6,4.7c0,0,2.152-2.2-.2-3.611-2.424-1.41-4.007,1.682-2.82,3.166,3.067,3.834,11.255,2.078,14.025-1.756C21.135,32.687,20.789,28.061,16.51,25.514Z"
       transform="translate(0 -6.542)"
       fill="#950740"
       style="fill:#c3073f;fill-opacity:1" />
    <g
       id="Group_6"
       data-name="Group 6"
       transform="translate(9.559 2.3)">
      <g
         id="Group_4"
         data-name="Group 4"
         transform="translate(2.35)">
        <rect
           id="Rectangle_23"
           data-name="Rectangle 23"
           width="1.187"
           height="33.369"
           fill="#950740" />
      </g>
      <g
         id="Group_5"
         data-name="Group 5">
        <rect
           id="Rectangle_24"
           data-name="Rectangle 24"
           width="1.187"
           height="33.369"
           fill="#950740" />
      </g>
    </g>
  </g>
</svg>
