<svg xmlns="http://www.w3.org/2000/svg" width="39.958" height="29.923" viewBox="0 0 39.958 29.923">
  <path id="deposit" d="M33.817,18.837a.8.8,0,0,1,.738.488l5.358,9.414a3.029,3.029,0,0,1,.075,1.181H.05v-.813a.8.8,0,0,1,.12-.413L5.6,19.26a.8.8,0,0,1,.706-.426H16.3L14.09,15.025a3.991,3.991,0,0,1-.348-.5l-.345-.6h0a.488.488,0,0,1-.1.078l-.573.325-.1.046a1.6,1.6,0,0,1-1.9-.423.52.52,0,0,1-.153.14L10,14.413a.55.55,0,0,1-.1.042,1.627,1.627,0,0,1-2-.534.325.325,0,0,1-.055.065l-.573.325-.1.046c-1.711.651-2.6-.911-3.305-2.18l-.192-.325-.865-1.444-.026-.046a6.7,6.7,0,0,1-.6-3.6V6.023A4.07,4.07,0,0,1,2.532,4.26a2.628,2.628,0,0,1,1.08-1.174L8.55.226A1.5,1.5,0,0,1,10.069.184a3.826,3.826,0,0,1,1.275,1.152l5.631,2.625H17c.072.033.15.065.234.107L19.783,2.6l9.375,16.236ZM16.624,15.887l2.928,5.12a1.643,1.643,0,0,1,2.248.6l3.816-2.2a1.649,1.649,0,0,1,.6-2.248L20.105,6.55a1.653,1.653,0,0,1-2.251-.6L14.926,7.643l.117.2,2.375,4.128a3.4,3.4,0,0,1,.9-.755,3.279,3.279,0,1,1-1.2,4.479l-.023-.039-.091.052a2,2,0,0,1-.4.179ZM13.95,5.968l2.023-1.174L10.746,2.6a.452.452,0,0,1-.179-.15,3.315,3.315,0,0,0-1-.976.6.6,0,0,0-.618,0L4.207,4.228a1.7,1.7,0,0,0-.686.761A2.9,2.9,0,0,0,3.4,6.264a.1.1,0,0,1,0,.029v.729a4.789,4.789,0,0,0,.374,2.811l.846,1.4a.185.185,0,0,1,.039.059c0,.02.088.153.189.325.53.94,1.181,2.1,2.121,1.753l.42-.244c-.146-.267-.286-.543-.42-.81s-.231-.472-.355-.683a.476.476,0,0,1,.823-.478c.124.215.254.472.387.738.455.914.976,1.952,1.747,1.679l.547-.325a.882.882,0,0,1,.1-.042c-.189-.325-.361-.651-.524-.976-.12-.241-.231-.468-.355-.683a.475.475,0,1,1,.813-.481c.124.211.25.472.387.738.452.911.976,1.952,1.744,1.679l.55-.325a.407.407,0,0,1,.117-.049l-.927-1.588a.476.476,0,0,1,.823-.478l1.74,3.012a1.634,1.634,0,0,0,1.464.976,1.083,1.083,0,0,0,.491-.146.976.976,0,0,0,.208-.156h0c0-.039.036-.059.078-.081a.758.758,0,0,0,.088-.114,1.558,1.558,0,0,0,0-1.532v-.026c-.033-.068-.072-.14-.111-.211L13.16,6.5a.478.478,0,0,1,.79-.534ZM17.2,20.441H6.774L2.161,28.3H37.893l-4.554-7.872h-5.6l-5.329,3.09H27.33a.8.8,0,1,1,0,1.6H13.882a.8.8,0,1,1,0-1.6H19l-1.779-3.077Z" transform="translate(-0.05 0.002)" fill="#950740"/>
</svg>
