<?xml version="1.0" encoding="UTF-8" standalone="no"?>
<svg
   enable-background="new 0 0 24 24"
   height="24"
   viewBox="0 0 24 24"
   width="24"
   version="1.1"
   id="svg10"
   sodipodi:docname="active.svg"
   inkscape:version="1.1.2 (b8e25be833, 2022-02-05)"
   xmlns:inkscape="http://www.inkscape.org/namespaces/inkscape"
   xmlns:sodipodi="http://sodipodi.sourceforge.net/DTD/sodipodi-0.dtd"
   xmlns="http://www.w3.org/2000/svg"
   xmlns:svg="http://www.w3.org/2000/svg">
  <defs
     id="defs14" />
  <sodipodi:namedview
     id="namedview12"
     pagecolor="#ffffff"
     bordercolor="#666666"
     borderopacity="1.0"
     inkscape:pageshadow="2"
     inkscape:pageopacity="0.0"
     inkscape:pagecheckerboard="0"
     showgrid="false"
     inkscape:zoom="23.291667"
     inkscape:cx="12"
     inkscape:cy="12.021467"
     inkscape:window-width="1366"
     inkscape:window-height="745"
     inkscape:window-x="-8"
     inkscape:window-y="-8"
     inkscape:window-maximized="1"
     inkscape:current-layer="svg10" />
  <g
     id="g4">
    <rect
       fill="none"
       height="24"
       width="24"
       id="rect2" />
  </g>
  <g
     id="g8"
     style="fill:#c3073f;fill-opacity:1">
    <path
       d="M15,20H5V7c0-0.55-0.45-1-1-1h0C3.45,6,3,6.45,3,7v13c0,1.1,0.9,2,2,2h10c0.55,0,1-0.45,1-1v0C16,20.45,15.55,20,15,20z M20,16V4c0-1.1-0.9-2-2-2H9C7.9,2,7,2.9,7,4v12c0,1.1,0.9,2,2,2h9C19.1,18,20,17.1,20,16z M18,16H9V4h9V16z"
       id="path6"
       style="fill:#c3073f;fill-opacity:1" />
  </g>
</svg>
