<?xml version="1.0" encoding="UTF-8" standalone="no"?>
<svg
   enable-background="new 0 0 24 24"
   height="24"
   viewBox="0 0 24 24"
   width="24"
   version="1.1"
   id="svg14"
   sodipodi:docname="inactive.svg"
   inkscape:version="1.1.2 (b8e25be833, 2022-02-05)"
   xmlns:inkscape="http://www.inkscape.org/namespaces/inkscape"
   xmlns:sodipodi="http://sodipodi.sourceforge.net/DTD/sodipodi-0.dtd"
   xmlns="http://www.w3.org/2000/svg"
   xmlns:svg="http://www.w3.org/2000/svg">
  <defs
     id="defs18" />
  <sodipodi:namedview
     id="namedview16"
     pagecolor="#ffffff"
     bordercolor="#666666"
     borderopacity="1.0"
     inkscape:pageshadow="2"
     inkscape:pageopacity="0.0"
     inkscape:pagecheckerboard="0"
     showgrid="false"
     inkscape:zoom="23.291667"
     inkscape:cx="3.5420394"
     inkscape:cy="12.021467"
     inkscape:window-width="1366"
     inkscape:window-height="745"
     inkscape:window-x="-8"
     inkscape:window-y="-8"
     inkscape:window-maximized="1"
     inkscape:current-layer="svg14" />
  <g
     id="g4">
    <path
       d="M0,0h24v24H0V0z"
       fill="none"
       id="path2" />
  </g>
  <g
     id="g12"
     style="fill:#950740;fill-opacity:1">
    <g
       id="g10"
       style="fill:#950740;fill-opacity:1">
      <path
         d="M5,5h6c0.55,0,1-0.45,1-1v0c0-0.55-0.45-1-1-1H5C3.9,3,3,3.9,3,5v14c0,1.1,0.9,2,2,2h6c0.55,0,1-0.45,1-1v0 c0-0.55-0.45-1-1-1H5V5z"
         id="path6"
         style="fill:#950740;fill-opacity:1" />
      <path
         d="M20.65,11.65l-2.79-2.79C17.54,8.54,17,8.76,17,9.21V11h-7c-0.55,0-1,0.45-1,1v0c0,0.55,0.45,1,1,1h7v1.79 c0,0.45,0.54,0.67,0.85,0.35l2.79-2.79C20.84,12.16,20.84,11.84,20.65,11.65z"
         id="path8"
         style="fill:#950740;fill-opacity:1" />
    </g>
  </g>
</svg>
