<?xml version="1.0" standalone="no"?>
<!DOCTYPE svg PUBLIC "-//W3C//DTD SVG 20010904//EN"
 "http://www.w3.org/TR/2001/REC-SVG-20010904/DTD/svg10.dtd">
<svg version="1.0" xmlns="http://www.w3.org/2000/svg"
 width="941.000000pt" height="1280.000000pt" viewBox="0 0 941.000000 1280.000000"
 preserveAspectRatio="xMidYMid meet">
<metadata>
Created by potrace 1.15, written by Peter Selinger 2001-2017
</metadata>
<g transform="translate(0.000000,1280.000000) scale(0.100000,-0.100000)"
fill="#000000" stroke="none">
<path d="M5185 12790 c-82 -4 -177 -12 -210 -18 -33 -7 -184 -25 -335 -42
-580 -65 -697 -86 -1358 -246 -860 -209 -1371 -508 -1485 -869 -47 -150 -19
-330 76 -495 129 -225 419 -555 850 -968 144 -138 278 -267 297 -286 l34 -36
-22 -16 c-31 -21 -37 -35 -184 -398 -79 -195 -130 -336 -131 -359 -1 -32 4
-44 31 -68 30 -27 38 -29 117 -29 47 0 85 -3 85 -6 0 -4 -42 -52 -93 -108
-337 -365 -776 -904 -1113 -1366 -1320 -1806 -1906 -3383 -1703 -4582 43 -254
104 -445 213 -673 108 -223 254 -437 443 -645 62 -68 70 -79 27 -37 -40 39
-63 54 -70 47 -6 -6 -36 -17 -67 -25 -31 -8 -83 -22 -114 -31 -32 -8 -80 -21
-106 -28 l-49 -14 59 62 58 61 -64 -60 c-243 -229 -324 -453 -231 -641 216
-440 1391 -729 3450 -849 146 -8 342 -19 435 -25 489 -29 681 -34 1245 -34
628 -1 826 6 1290 45 1071 89 1898 303 2360 610 54 36 136 104 190 158 170
170 230 339 189 533 -33 155 -176 357 -354 499 -30 24 -55 47 -55 52 0 4 12
26 27 50 15 23 59 107 99 187 574 1153 517 2589 -156 3937 -538 1078 -1393
1985 -2560 2717 l-76 47 35 102 c48 141 40 176 -60 253 l-26 20 19 91 c19 90
19 92 0 135 -17 40 -29 49 -144 111 l-126 68 29 96 c35 118 36 143 4 181 -14
17 -25 33 -25 36 0 4 78 190 174 414 335 782 434 1068 482 1385 20 132 15 394
-10 482 -70 251 -254 428 -532 515 -187 58 -492 79 -859 60z"/>
<path d="M474 1648 l-19 -23 23 19 c21 18 27 26 19 26 -2 0 -12 -10 -23 -22z"/>
</g>
</svg>
