<?xml version="1.0" encoding="utf-8"?>
<!-- Generator: Adobe Illustrator 21.0.2, SVG Export Plug-In . SVG Version: 6.00 Build 0)  -->
<svg version="1.1" id="Layer_1" xmlns="http://www.w3.org/2000/svg" xmlns:xlink="http://www.w3.org/1999/xlink" x="0px" y="0px"
	 viewBox="0 0 76.5 141.7" style="enable-background:new 0 0 76.5 141.7;" xml:space="preserve">
<path d="M59.2,69.7c-3.6-2.1-7.4-4-11.1-5.7c-12.7-6-32-7.8-33.6-27.1c-1.6-19.3,22.8-25.5,38.8-19c0,0-8.7,8.9,0.8,14.6
	c9.8,5.7,16.2-6.8,11.4-12.8C53.2,4.1,20,11.3,8.8,26.8c-10.1,13.9-8.7,32.6,8.6,42.9c3.6,2.1,7.4,4,11.1,5.7
	c12.7,6,32,7.8,33.6,27.1c1.6,19.3-22.8,25.5-38.8,19c0,0,8.7-8.9-0.8-14.6c-9.8-5.7-16.2,6.8-11.4,12.8
	c12.4,15.5,45.5,8.4,56.7-7.1C77.9,98.7,76.5,80,59.2,69.7z"/>
<g>
	<g>
		<rect x="40.6" y="2.3" width="4.8" height="134.9"/>
	</g>
	<g>
		<rect x="31.1" y="2.3" width="4.8" height="134.9"/>
	</g>
</g>
</svg>
