<?xml version="1.0"?>
<svg xmlns:rdf="http://www.w3.org/1999/02/22-rdf-syntax-ns#" xmlns="http://www.w3.org/2000/svg" xmlns:cc="http://web.resource.org/cc/" xmlns:dc="http://purl.org/dc/elements/1.1/" xmlns:svg="http://www.w3.org/2000/svg" viewBox="0 0 468 468" version="1.0">
  <g transform="translate(0 468) scale(.078 -.078)">
    <path d="m4035 5886l-60-11-35-70c-19-39-43-83-53-97s-25-52-34-84c-9-33-20-61-23-64-4-3-20-34-36-70s-34-71-41-78-19-28-28-45c-8-18-29-47-45-65-25-27-36-32-76-32-69 0-226-20-250-32-36-17-59-6-62 30-3 31 34 237 46 257 4 6 5 18 4 28-2 10 2 25 9 33s14 48 17 88l4 74-28 6c-45 10-164-11-221-39-29-14-56-25-60-25-5 0-28-16-52-35s-47-35-52-35c-4 0-10-14-14-30-4-17-12-36-18-43-7-6-23-43-36-82-13-38-31-83-40-100-10-16-26-58-37-92-10-35-23-63-27-63-5 0-6-4-3-9s-1-22-9-37c-8-16-15-33-15-37 0-5-7-24-16-43-12-25-23-34-41-34-13 0-41-9-61-19-20-11-71-29-112-42-41-12-84-28-95-35-11-6-53-22-92-35-40-13-73-27-73-31s-6-8-13-8c-31 0-145-55-196-94-31-24-80-58-108-75-29-18-53-36-53-39 0-4-14-13-31-21-36-16-289-267-328-325-14-22-35-54-46-71-11-18-30-47-43-66-12-19-25-45-28-59-6-26-17-53-33-80-27-46-61-202-61-282 0-26-4-50-10-53-13-8-13-298 0-311 5-5 18-47 29-93 13-54 29-93 44-110 13-14 30-41 38-58 8-18 19-33 26-33 6 0 23-14 36-30 14-17 30-30 34-30 5 0 18-8 29-17 29-25 50-38 129-78 55-28 82-35 127-35 31 0 60 5 63 10 9 15 268 13 283-2 14-14 16-74 3-83-5-3-12-20-16-38-21-102-49-213-55-222-5-5-20-62-35-125-14-63-30-123-36-133-5-9-16-47-25-84-19-82-39-133-53-133-6 0-11-6-11-12 0-7-9-27-20-45-17-29-22-31-47-23-15 5-118 19-228 31s-202 25-205 29-33 10-66 14l-61 7-22-50c-11-27-21-54-21-60s-4-11-10-11c-5 0-13-15-19-33-18-58-41-118-55-140-7-12-21-44-31-72-9-27-20-57-23-65-2-8-4-28-3-43 2-16-5-37-16-49-16-18-18-37-16-187 1-91 5-182 8-201l6-36 137-23c75-13 142-27 147-31 6-4 81-20 168-36 194-34 182-15 143-219-9-44-20-89-25-100-12-29-31-135-31-179 0-45 19-126 30-126 4 0 10-8 14-17 3-10 17-34 32-53 22-31 49-62 165-187 17-20 39-33 53-33 15 0 26-7 29-20 3-11 12-20 21-20s16-4 16-10c0-14 76-12 87 3 5 6 22 104 37 217s31 214 36 225 21 108 35 215 31 200 37 207c15 19 201 18 217-1 7-8 44-16 97-21l86-7-7-71c-3-40-13-110-21-157s-14-102-14-122-4-40-10-43c-15-9-12-109 5-141 8-16 15-37 15-47 0-37 81-137 111-137 5 0 38-13 72-30 54-25 76-30 143-30 95 0 120 13 129 68 3 20 11 46 17 57s17 60 24 110c18 129 35 218 45 231 5 6 18 67 29 135 12 68 25 128 30 133s6 15 3 23-2 18 3 22c6 3 15 38 21 76 14 83 42 115 101 115 20 0 46 7 56 15 11 8 28 15 37 15 10 0 19 5 21 11s34 17 71 25c37 7 89 25 115 39s51 25 56 25c13 0 99 43 114 58 7 6 18 12 23 12 6 0 29 12 52 28 66 43 80 51 112 65 17 8 70 44 118 80 49 37 93 67 98 67s9 6 9 13c0 8 10 19 23 24 38 18 119 92 170 157 26 34 56 70 67 81 11 12 20 25 20 29 0 5 12 25 28 45 30 40 52 78 52 92 0 5 8 28 19 52 22 50 35 110 57 277 10 69 22 128 28 132 16 10 13 271-2 276-7 2-12 18-12 36 0 36-42 165-57 175-5 3-17 30-27 60-22 68-56 117-143 206-92 96-125 119-212 149-41 14-77 29-80 34s-58 22-121 37-124 31-135 36c-11 4-44 10-74 13s-59 10-64 15c-11 11 1 108 14 117 5 3 9 18 9 34s4 39 9 52 17 68 26 123c10 55 24 116 33 135s19 55 23 80 12 74 18 109c5 35 15 69 20 74 6 6 11 27 11 47 0 73 62 98 214 85 114-9 150-32 154-95 2-37-3-54-30-93-18-27-38-58-44-69-7-11-22-25-35-32-29-14-39-56-13-56 10 0 25 6 33 13 9 8 75 26 146 42 72 15 135 31 140 35 6 4 45 20 88 35 42 15 77 32 77 36 0 5 7 9 16 9 17 0 143 128 144 146 0 7 6 14 14 17 7 3 16 16 19 29 14 64 39 143 47 153 15 18 32 247 28 374-3 116-4 116-46 188-46 78-100 128-177 164-42 20-70 24-180 27-71 2-134 8-139 13-13 12-76 12-76 0 0-10-148-26-157-17-6 6 34 144 47 161 4 6 20 48 34 95 15 47 37 105 49 130 27 57 27 135 0 182-19 32-20 33-94 34-40 1-101-3-134-10zm-635-1600c0-7-4-26-9-42s-14-54-21-84-19-59-26-65c-13-10-38-121-59-265-7-47-13-85-14-85s-12-31-24-70c-18-56-27-71-47-76-25-7-222-2-317 7-51 5-52 6-58 44-4 24 0 62 9 100 9 34 16 70 16 81s4 27 9 37c6 9 22 69 36 132s30 123 36 132c5 10 9 26 9 35 0 43 54 96 119 119 52 19 341 19 341 0zm-950-31c14-17 7-90-11-111-5-7-9-16-8-20 1-5-3-21-9-35-6-15-16-64-23-110-6-46-16-95-21-109s-9-27-9-30-7-12-15-21c-16-17-44-103-44-135 0-60-89-83-326-84-129 0-130 0-157 28-20 20-28 42-33 86-6 51-4 65 17 105 13 25 26 48 29 51s12 18 20 33c8 16 29 45 47 64 36 37 166 126 202 138 11 3 21 10 21 16 0 5 16 15 35 23s54 28 77 44c24 16 57 32 73 36 17 4 44 15 60 26 36 24 58 25 75 5zm524-1254c6-4 23-11 38-15 43-10 46-56 13-226-16-80-32-147-36-150-3-3-16-57-29-120-12-63-25-119-28-125-4-5-5-18-4-28 2-10-1-24-6-30-6-7-22-72-36-146s-31-140-36-147c-25-29-67-34-260-32l-195 3 1 50c0 28 6 90 13 139 10 68 17 90 30 93s23 32 40 115c13 62 27 119 32 127 4 9 20 75 35 146 14 72 30 135 35 140 4 6 11 31 15 55 11 77 77 156 135 162 56 6 231-2 243-11zm847-36c37-13 76-29 86-35 10-5 44-19 76-31 50-18 63-28 96-78 49-72 61-115 61-225 0-80-3-94-29-140-40-69-157-165-284-231-56-29-131-69-167-89-45-25-78-36-107-36-42 0-43 1-43 33 0 39 28 194 41 222 5 11 20 94 34 185s30 174 36 186c6 11 10 27 8 35-1 8 0 21 4 29 3 8 11 51 18 95s17 85 23 92c17 19 73 15 147-12z"/>
  </g>
  <metadata>
    <rdf:RDF>
      <cc:Work>
        <dc:format>image/svg+xml</dc:format>
        <dc:type rdf:resource="http://purl.org/dc/dcmitype/StillImage"/>
        <cc:license rdf:resource="http://creativecommons.org/licenses/publicdomain/"/>
        <dc:publisher>
          <cc:Agent rdf:about="http://openclipart.org/">
            <dc:title>Openclipart</dc:title>
          </cc:Agent>
        </dc:publisher>
        <dc:title>Money 6</dc:title>
        <dc:date>2012-02-06T15:16:39</dc:date>
        <dc:description>A Dollar Sign</dc:description>
        <dc:source>http://openclipart.org/detail/167781/money-6-by-dripsandcastle</dc:source>
        <dc:creator>
          <cc:Agent>
            <dc:title>dripsandcastle</dc:title>
          </cc:Agent>
        </dc:creator>
        <dc:subject>
          <rdf:Bag>
            <rdf:li>clip art</rdf:li>
            <rdf:li>clipart</rdf:li>
            <rdf:li>dollar</rdf:li>
            <rdf:li>dollar sign</rdf:li>
            <rdf:li>money</rdf:li>
          </rdf:Bag>
        </dc:subject>
      </cc:Work>
      <cc:License rdf:about="http://creativecommons.org/licenses/publicdomain/">
        <cc:permits rdf:resource="http://creativecommons.org/ns#Reproduction"/>
        <cc:permits rdf:resource="http://creativecommons.org/ns#Distribution"/>
        <cc:permits rdf:resource="http://creativecommons.org/ns#DerivativeWorks"/>
      </cc:License>
    </rdf:RDF>
  </metadata>
</svg>
