<?xml version="1.0" encoding="UTF-8" standalone="no"?>
<svg
   height="24"
   viewBox="0 0 24 24"
   width="24"
   version="1.1"
   id="svg10"
   sodipodi:docname="white.svg"
   inkscape:version="1.1.2 (b8e25be833, 2022-02-05)"
   xmlns:inkscape="http://www.inkscape.org/namespaces/inkscape"
   xmlns:sodipodi="http://sodipodi.sourceforge.net/DTD/sodipodi-0.dtd"
   xmlns="http://www.w3.org/2000/svg"
   xmlns:svg="http://www.w3.org/2000/svg">
  <defs
     id="defs14" />
  <sodipodi:namedview
     id="namedview12"
     pagecolor="#ffffff"
     bordercolor="#666666"
     borderopacity="1.0"
     inkscape:pageshadow="2"
     inkscape:pageopacity="0.0"
     inkscape:pagecheckerboard="0"
     showgrid="false"
     inkscape:zoom="23.291667"
     inkscape:cx="12"
     inkscape:cy="12.021467"
     inkscape:window-width="1366"
     inkscape:window-height="745"
     inkscape:window-x="-8"
     inkscape:window-y="-8"
     inkscape:window-maximized="1"
     inkscape:current-layer="svg10" />
  <path
     d="M0 0h24v24H0z"
     fill="none"
     id="path2" />
  <path
     d="M3 8c0 .55.45 1 1 1s1-.45 1-1V6h2c.55 0 1-.45 1-1s-.45-1-1-1H5V2c0-.55-.45-1-1-1s-1 .45-1 1v2H1c-.55 0-1 .45-1 1s.45 1 1 1h2v2z"
     id="path4"
     style="fill:#ffffff" />
  <circle
     cx="13"
     cy="14"
     r="3"
     id="circle6"
     style="fill:#ffffff" />
  <path
     d="M21 6h-3.17l-1.24-1.35c-.37-.41-.91-.65-1.47-.65h-6.4c.17.3.28.63.28 1 0 1.1-.9 2-2 2H6v1c0 1.1-.9 2-2 2-.37 0-.7-.11-1-.28V20c0 1.1.9 2 2 2h16c1.1 0 2-.9 2-2V8c0-1.1-.9-2-2-2zm-8 13c-2.76 0-5-2.24-5-5s2.24-5 5-5 5 2.24 5 5-2.24 5-5 5z"
     id="path8"
     style="fill:#ffffff" />
</svg>
